<?xml version="1.0" standalone="no"?>
<!DOCTYPE svg PUBLIC "-//W3C//DTD SVG 20010904//EN"
 "http://www.w3.org/TR/2001/REC-SVG-20010904/DTD/svg10.dtd">
<svg version="1.0" xmlns="http://www.w3.org/2000/svg"
 width="1212.000000pt" height="1280.000000pt" viewBox="0 0 1212.000000 1280.000000"
 preserveAspectRatio="xMidYMid meet">
<metadata>
Created by potrace 1.15, written by Peter Selinger 2001-2017
</metadata>
<g transform="translate(0.000000,1280.000000) scale(0.100000,-0.100000)"
fill="#000000" stroke="none">
<path d="M6212 12570 c-12 -113 -40 -371 -62 -575 -87 -813 -162 -1522 -186
-1750 -35 -342 -41 -364 -43 -159 -3 428 -15 896 -23 849 -18 -120 -189 -1467
-186 -1470 2 -2 177 6 391 18 326 18 387 23 387 36 0 14 -50 487 -135 1280
-28 254 -43 477 -70 1030 -19 388 -38 760 -42 826 l-8 120 -23 -205z"/>
<path d="M2353 11455 c2 -5 191 -316 419 -691 390 -639 438 -724 794 -1392
208 -391 383 -712 387 -712 10 0 626 367 645 385 11 10 -75 113 -463 551 -263
297 -488 550 -502 564 -14 14 46 -83 133 -215 373 -569 425 -649 406 -630 -10
11 -419 493 -907 1070 -851 1006 -925 1093 -912 1070z"/>
<path d="M9460 10770 c-534 -501 -621 -578 -1212 -1072 -350 -293 -637 -536
-637 -539 -1 -4 117 -134 261 -289 210 -226 264 -280 272 -268 223 297 875
1175 885 1191 8 12 -155 -149 -363 -358 -208 -209 -374 -373 -368 -365 10 17
1656 2131 1710 2198 19 23 33 42 31 42 -2 0 -263 -243 -579 -540z"/>
<path d="M5945 8919 c-722 -67 -1392 -395 -1845 -905 -354 -398 -552 -825
-631 -1359 -18 -118 -18 -482 0 -600 22 -148 59 -315 97 -436 288 -909 1103
-1605 2094 -1788 204 -38 293 -45 540 -45 238 0 336 7 515 40 114 21 297 65
315 76 11 7 10 8 -6 3 -60 -16 -322 -35 -487 -35 -302 0 -576 37 -858 114
-116 32 -235 73 -179 61 321 -67 391 -75 670 -82 193 -4 276 -2 390 11 530 62
992 253 1365 566 433 362 701 840 793 1410 24 149 23 522 -1 680 -65 419 -204
782 -434 1135 -109 167 -283 383 -428 534 -309 320 -707 528 -1165 607 -113
19 -587 28 -745 13z m-615 -273 c0 -3 -39 -30 -86 -61 -295 -192 -559 -482
-740 -810 -44 -81 -57 -87 126 60 809 650 1638 849 2455 589 105 -34 320 -141
415 -207 l75 -52 22 -87 c25 -99 58 -290 73 -423 15 -129 25 -469 14 -463 -5
2 -43 20 -84 41 -112 55 -214 78 -345 79 -208 1 -370 -49 -561 -173 -73 -48
-282 -245 -271 -256 3 -2 35 5 71 16 116 36 226 52 361 52 282 0 496 -78 712
-259 44 -37 52 -40 57 -25 13 45 47 289 55 391 4 62 11 115 14 119 12 11 121
-86 184 -164 111 -136 174 -297 192 -486 9 -90 2 -242 -15 -314 -16 -71 -48
-172 -71 -223 l-25 -55 -14 77 c-19 107 -66 249 -114 343 -45 87 -135 217
-181 261 -32 31 -29 35 -54 -70 -94 -391 -305 -818 -562 -1137 -29 -36 -53
-68 -53 -71 0 -9 172 21 299 53 222 55 474 153 664 259 60 33 111 60 114 60
10 0 -102 -199 -172 -305 -243 -364 -549 -637 -920 -821 -318 -157 -691 -233
-1007 -205 -110 10 -276 36 -286 46 -2 1 39 19 90 40 231 91 553 279 763 442
110 86 279 241 376 346 l73 79 -85 -9 c-146 -14 -421 -7 -569 16 -893 135
-1618 739 -1954 1628 -25 67 -46 129 -46 138 0 8 -4 15 -8 15 -9 0 -55 -211
-74 -340 -17 -114 -17 -548 0 -660 48 -308 142 -585 278 -818 249 -423 625
-724 1074 -857 l75 -22 -128 -42 c-139 -45 -316 -91 -440 -114 l-78 -15 -90
55 c-670 404 -1110 1042 -1216 1763 -20 141 -23 444 -4 580 54 398 202 762
451 1102 45 62 142 171 245 273 245 246 436 383 755 542 175 88 170 85 170 79z"/>
<path d="M5245 7984 c-253 -56 -484 -223 -636 -459 -29 -45 -81 -145 -76 -145
2 0 50 24 108 54 457 237 971 161 1314 -195 98 -102 191 -239 236 -349 17 -41
35 -79 39 -83 15 -16 34 137 33 263 -3 433 -243 783 -618 900 -94 29 -299 37
-400 14z"/>
<path d="M11645 8349 c-236 -71 -560 -168 -720 -215 -159 -47 -317 -94 -350
-104 -33 -10 -154 -46 -270 -80 -115 -34 -237 -70 -270 -80 -33 -10 -139 -42
-235 -70 -96 -28 -235 -69 -308 -91 -74 -23 -135 -39 -137 -37 -1 2 210 95
471 207 260 113 472 206 471 208 -8 7 -1447 -391 -1447 -401 0 -11 318 -675
330 -689 3 -4 328 169 721 384 672 368 757 411 1439 736 737 351 763 363 745
362 -5 -1 -203 -59 -440 -130z"/>
<path d="M30 8207 c0 -2 24 -12 53 -22 28 -9 275 -93 547 -187 484 -166 659
-226 1018 -349 765 -262 1069 -368 1061 -368 -6 -1 -576 119 -867 183 -158 34
-182 34 -77 -2 33 -11 348 -126 699 -256 352 -130 640 -235 642 -233 2 2 30
165 64 362 33 198 62 370 65 381 4 20 -1 22 -58 28 -34 4 -399 47 -812 96
-738 88 -762 91 -1520 225 -424 75 -780 139 -792 142 -13 3 -23 3 -23 0z"/>
<path d="M2990 5779 c-36 -17 -342 -154 -680 -306 -338 -152 -617 -278 -620
-281 -7 -7 -27 -12 509 142 261 75 476 135 477 133 2 -2 -51 -26 -119 -55 -67
-28 -288 -121 -492 -208 -203 -86 -527 -223 -720 -304 -192 -81 -516 -218
-720 -305 -203 -86 -410 -172 -458 -192 -48 -19 -86 -37 -84 -39 2 -2 354 83
783 190 838 209 666 173 2327 488 31 6 57 15 57 21 0 9 -149 630 -171 710 -5
20 -13 37 -17 37 -4 -1 -36 -14 -72 -31z"/>
<path d="M9008 5458 c-91 -194 -165 -354 -165 -355 2 -1 1225 -324 1442 -381
11 -3 18 -2 15 1 -7 7 -929 397 -940 397 -5 0 -11 4 -15 10 -3 5 16 3 42 -6
26 -8 377 -109 778 -224 402 -115 995 -286 1320 -379 324 -93 591 -169 592
-167 2 1 -325 155 -725 341 -686 319 -768 360 -1452 727 -398 213 -724 388
-725 388 0 0 -75 -159 -167 -352z"/>
<path d="M7874 3903 l-270 -277 610 -544 c557 -496 661 -595 1185 -1116 316
-314 563 -555 549 -536 -14 19 -389 535 -835 1146 -445 610 -813 1117 -818
1125 -9 15 2 4 424 -451 324 -348 310 -333 289 -300 -39 64 -850 1225 -857
1228 -4 1 -129 -122 -277 -275z"/>
<path d="M3596 3433 c-335 -672 -384 -763 -753 -1408 -431 -752 -409 -712
-401 -705 3 3 394 489 868 1080 474 591 871 1084 882 1095 11 11 -37 -70 -105
-180 -365 -587 -427 -688 -409 -670 39 39 942 1118 942 1125 0 7 -651 380
-662 380 -1 0 -164 -323 -362 -717z"/>
<path d="M5710 3327 c0 -18 20 -313 45 -657 25 -344 49 -674 53 -735 l8 -110
7 65 c4 36 20 261 37 500 16 239 31 453 33 475 5 69 16 -125 57 -970 22 -451
52 -1040 65 -1310 14 -269 25 -506 26 -525 1 -64 8 -17 38 270 133 1251 141
1321 221 1810 44 267 103 625 130 795 28 171 53 315 55 321 4 14 1 15 -395 59
-173 19 -330 37 -347 39 -31 5 -33 3 -33 -27z"/>
</g>
</svg>
